<?xml version="1.0" encoding="utf-8"?>
<!-- Generator: Adobe Illustrator 18.1.1, SVG Export Plug-In . SVG Version: 6.00 Build 0)  -->
<svg version="1.1" id="Lettering" xmlns="http://www.w3.org/2000/svg" xmlns:xlink="http://www.w3.org/1999/xlink" x="0px" y="0px"
	 viewBox="0 0 800 250" enable-background="new 0 0 800 250" xml:space="preserve">
<path fill="#C4102E" d="M109.9,105.3C106.6,99.5,98.6,78,71.7,76h-35c-0.1,43-0.7,92.1-0.7,109.4c0,7.3,2.4,12.6,10.2,12.6h9.3
	c0.5-11,0.4-18.7,0.4-30.7l53.6,0c1.2,5.1,2.3,11.2,3.3,19.1c0.9,5.8,6.1,11.6,16.1,11.6h9.8C131,162,122.5,130.6,109.9,105.3z
	 M56,147.6c-0.2-17.7,0-31,0-54.2c31-4.1,43.3,19.3,49.2,54.3L56,147.6z"/>
<path fill="#3F3F3F" d="M183,187.8c-20.4,0-36.5-13.5-36.5-37.6V103h3.8c11.8,0,17,5.1,17,14.7v30.4c0,15.2,7.4,21.3,16.7,21.3
	c8.4,0,14.4-5.8,14.4-20V103h3.7c12,0,17,5.1,17,14.7v31C219.3,174.6,207.1,187.8,183,187.8z"/>
<path fill="#3F3F3F" d="M246,90c2.8-3.2,6.4-5.7,9.7-5.7h4.8V103h28.7v8.4c0,4.3-3.8,9.8-12.3,9.8h-16.4v32.4
	c0,10.7,4.8,14.9,13.1,14.9c6.6,0,11.7-0.9,14.9-2.9h0.8v7.4c0,8.4-6.1,13.8-18.1,13.8c-20.9,0-31-11.4-31-30.7v-49.8
	C240,98.2,241.5,95.2,246,90z"/>
<path fill="#3F3F3F" d="M512.3,186.7c-16,0-24.7-9.1-24.7-25.8c0-4.8,0-56,0-56h5.8c9.2,0,14.7,4.9,14.7,15.4v38.7
	c0,8.3,3.5,10.9,12.6,10.9h3.8v4.5C524.6,183.2,521,186.7,512.3,186.7z"/>
<path fill="#3F3F3F" d="M602.5,185.9c-9.2,0-15-5.8-15-13.5v-32.9c0-14-6.1-20.1-16.7-20.1c-8.9,0-15,6.8-15,18.6v47.9h-6.1
	c-8.8,0-14.4-5.8-14.4-13.5v-35.8c0-17.5,11.5-35.5,37.3-35.5c19.5,0,35.6,13.1,35.6,36.5v48.2H602.5z"/>
<path fill="#3F3F3F" d="M663.3,188.1c-21.7,1.7-44.6-19.6-44.6-42.3c0-27.2,20.2-43.5,44.6-43.1c8.3,0.2,13,1,20.7,6l0-34.4h6.3
	c9.8,0,14.1,5.7,14.1,14v56.6C703.1,169.5,691.3,185.9,663.3,188.1z"/>
<path fill="#3F3F3F" d="M767.4,123.1c-3.1-1.2-6.6-2.5-12-2.5c-9.2,0-14.3,5.1-14.3,17.7v47.6h-5.7c-9.2,0-15-4.6-15-13.2v-38.1
	c0-16.6,8.8-32.4,30.6-32.4c12.7,0,17.2,7.2,17.2,13.5v7.4H767.4z"/>
<g>
	<path fill="#C4102E" d="M468,169L468,169C468,169,468,169,468,169z"/>
	<path fill="#C4102E" d="M467.9,94.1C467.9,94.1,467.8,94.1,467.9,94.1C467.8,94.1,467.8,94.1,467.9,94.1L467.9,94.1z"/>
	<path fill="#C4102E" d="M464,148L464,148l-45.1,0.3c5.9-35,18.1-58.4,49-54.4c0-10-0.1-16.9-0.1-16.9h-15.6
		c-26.8,2-34.9,23.5-38.2,29.3c-12.6,25.3-21.1,56.7-28.8,92.7h9.8c10,0,15.2-5.9,16.1-11.7c1-7.9,2.1-14.1,3.3-19.2L468,168
		c0-2.6,0-10-0.1-20H464z"/>
</g>
<path fill="#C4102E" d="M498.7,37c-14.2,0-25.7,11.5-25.7,25.7s11.5,25.7,25.7,25.7s25.7-11.5,25.7-25.7S512.9,37,498.7,37z
	 M499.2,73.7c-6.2,0-11.2-5-11.2-11.2s5-11.2,11.2-11.2s11.2,5,11.2,11.2S505.4,73.7,499.2,73.7z"/>
<path fill="#3F3F3F" d="M338.6,101.4c-23.6,0-42.7,19.1-42.7,42.7s19.1,42.7,42.7,42.7s42.7-19.1,42.7-42.7S362.1,101.4,338.6,101.4
	z M338.6,168.8c-14,0-25.4-11.4-25.4-25.4s11.4-25.4,25.4-25.4c14,0,25.4,11.4,25.4,25.4S352.6,168.8,338.6,168.8z"/>
<circle fill="#FFFFFF" cx="661.7" cy="144.9" r="25.4"/>
</svg>
